<svg width="54" height="54" viewBox="0 0 54 54" fill="none" xmlns="http://www.w3.org/2000/svg">
<path d="M9.91992 46.6C11.7049 43.6701 14.2136 41.2486 17.2048 39.5683C20.1959 37.888 23.5691 37.0055 26.9999 37.0055C30.4308 37.0055 33.8039 37.888 36.7951 39.5683C39.7863 41.2486 42.295 43.6701 44.0799 46.6M26.9999 31C29.6521 31 32.1956 29.9464 34.071 28.0711C35.9464 26.1957 36.9999 23.6522 36.9999 21C36.9999 18.3478 35.9464 15.8043 34.071 13.9289C32.1956 12.0536 29.6521 11 26.9999 11C24.3478 11 21.8042 12.0536 19.9289 13.9289C18.0535 15.8043 16.9999 18.3478 16.9999 21C16.9999 23.6522 18.0535 26.1957 19.9289 28.0711C21.8042 29.9464 24.3478 31 26.9999 31Z" stroke="black" stroke-width="1.71429" stroke-linecap="round" stroke-linejoin="round"/>
<path d="M27 53C33.8956 53 40.5088 50.2607 45.3848 45.3848C50.2607 40.5088 53 33.8956 53 27C53 20.1044 50.2607 13.4912 45.3848 8.61522C40.5088 3.73928 33.8956 1 27 1C20.1044 1 13.4912 3.73928 8.61522 8.61522C3.73928 13.4912 1 20.1044 1 27C1 33.8956 3.73928 40.5088 8.61522 45.3848C13.4912 50.2607 20.1044 53 27 53Z" stroke="black" stroke-width="1.71429" stroke-linecap="round" stroke-linejoin="round"/>
</svg>
